# xmcd
#
# Track frame offsets: 
#        150
#        16279
#        32538
#        45869
#        61301
#        77274
#        95477
#        111145
#        124965
#        138853
#        150777
#        167201
#
# Disc length: 2447 seconds
#
# Revision: 0
# Processed by: cddbd v1.5.2PL0 Copyright (c) Steve Scherf et al.
# Submitted via: ExactAudioCopy v1.3
#
DISCID=81098d0c
DTITLE=Delta Rae - The Light
DYEAR=2020
DGENRE=Country
TTITLE0=Burning in Carolina
TTITLE1=Take Me There
TTITLE2=Any Better Than This
TTITLE3=Stronger Than a Lion
TTITLE4=No One Will Miss Me
TTITLE5=Back to the Garden
TTITLE6=Only in America
TTITLE7=From One Woman to Another
TTITLE8=If I'd Known I Loved Her
TTITLE9=Danced Right Out of My Arms
TTITLE10=Soft Place to Land
TTITLE11=The Wrong Ocean
EXTD=
EXTT0=
EXTT1=
EXTT2=
EXTT3=
EXTT4=
EXTT5=
EXTT6=
EXTT7=
EXTT8=
EXTT9=
EXTT10=
EXTT11=
PLAYORDER=
